<?xml version="1.0" encoding="iso-8859-1"?>
<!-- Generator: Adobe Illustrator 19.0.0, SVG Export Plug-In . SVG Version: 6.00 Build 0)  -->
<svg version="1.1" id="Capa_1" xmlns="http://www.w3.org/2000/svg" xmlns:xlink="http://www.w3.org/1999/xlink" x="0px" y="0px"
	 viewBox="0 0 479.993 479.993" style="enable-background:new 0 0 479.993 479.993;" xml:space="preserve">
<g>
	<g>
		<rect x="96" y="327.418" width="40" height="16"/>
	</g>
</g>
<g>
	<g>
		<path d="M190.656,394.981L160,348.996v-37.578c0-41.906-36.234-76-80.766-76c-42.84-0.825-78.274,33.163-79.234,76v160
			c-0.003,4.416,3.575,7.997,7.991,8c0.003,0,0.006,0,0.009,0h80c4.416,0.003,7.997-3.575,8-7.991c0-0.003,0-0.006,0-0.009v-24h56
			c4.416,0.003,7.997-3.575,8-7.991c0-0.003,0-0.006,0-0.009v-32h24c4.418,0,8-3.581,8-7.999
			C192,397.84,191.533,396.295,190.656,394.981z M152,391.418c-4.416-0.003-7.997,3.575-8,7.991c0,0.003,0,0.006,0,0.009v32H88
			c-4.416-0.003-7.997,3.575-8,7.991c0,0.003,0,0.006,0,0.009v24H16v-152c0.954-34.003,29.228-60.831,63.234-60
			c35.11,0,64.766,27.477,64.766,60v40c0.001,1.579,0.468,3.123,1.344,4.438l23.711,35.563H152z"/>
	</g>
</g>
<g>
	<g>
		<path d="M80,263.418c-26.469,0-48,17.945-48,40c-0.003,4.416,3.575,7.997,7.991,8c0.003,0,0.006,0,0.009,0h80
			c4.416,0.003,7.997-3.575,8-7.991c0-0.003,0-0.006,0-0.009C128,281.363,106.469,263.418,80,263.418z M49.828,295.418
			c6.273-10.557,17.914-16.729,30.172-16c12.258-0.729,23.899,5.443,30.172,16H49.828z"/>
	</g>
</g>
<g>
	<g>
		<path d="M302.86,211.301c-0.675-1.125-1.617-2.067-2.742-2.742l-40-24c-3.787-2.274-8.701-1.048-10.976,2.739
			c-0.747,1.244-1.142,2.669-1.142,4.12v16h-72c-4.416-0.003-7.997,3.575-8,7.991c0,0.003,0,0.006,0,0.009v24h-16v16h24
			c4.416,0.003,7.997-3.575,8-7.991c0-0.003,0-0.006,0-0.009v-24h64v16c0,4.418,3.582,8,8,8c1.45,0,2.874-0.394,4.117-1.141l40-24
			C303.906,220.004,305.133,215.09,302.86,211.301z M264,225.285v-19.734l16.453,9.867L264,225.285z"/>
	</g>
</g>
<g>
	<g>
		<path d="M310.038,58.173c-1.519-1.749-3.721-2.754-6.038-2.755h-24.812l-7.609-22.555c-1.094-3.254-4.145-5.446-7.578-5.445
			c-3.433-0.001-6.484,2.191-7.578,5.445l-7.609,22.555H224c-4.418,0.001-7.998,3.584-7.997,8.002
			c0.001,2.316,1.005,4.519,2.755,6.038l20.781,18.031l-7.898,25.57c-1.305,4.221,1.058,8.7,5.279,10.005
			c2.473,0.765,5.164,0.285,7.221-1.287L264,106.606l19.859,15.172c3.51,2.683,8.53,2.012,11.213-1.498
			c1.572-2.057,2.052-4.747,1.287-7.221l-7.898-25.57l20.781-18.031C312.578,66.561,312.934,61.509,310.038,58.173z M274.039,78.824
			c-2.397,2.074-3.339,5.371-2.398,8.398l2.047,6.648l-4.828-3.695c-2.87-2.188-6.848-2.188-9.719,0l-4.828,3.695l2.047-6.648
			c0.941-3.027-0.001-6.324-2.398-8.398l-8.531-7.406h9.125c3.433,0.001,6.484-2.191,7.578-5.445L264,60.449l1.867,5.523
			c1.094,3.254,4.145,5.446,7.578,5.445h9.125L274.039,78.824z"/>
	</g>
</g>
<g>
	<g>
		<path d="M313.047,120.543c-4.798,5.719-10.556,10.557-17.016,14.297l8.016,13.844c8.071-4.668,15.263-10.712,21.25-17.859
			L313.047,120.543z"/>
	</g>
</g>
<g>
	<g>
		<path d="M249.891,0.66c-9.188,1.632-18.016,4.872-26.078,9.57l8.047,13.828c6.444-3.755,13.5-6.344,20.844-7.649L249.891,0.66z"/>
	</g>
</g>
<g>
	<g>
		<path d="M277.633,0.574L274.93,16.34c7.349,1.26,14.419,3.807,20.883,7.523l7.969-13.875
			C295.688,5.334,286.836,2.146,277.633,0.574z"/>
	</g>
</g>
<g>
	<g>
		<path d="M200,79.559l-16,0.031c0.002,9.327,1.647,18.58,4.859,27.336l15.016-5.5C201.316,94.419,200.005,87.018,200,79.559z"/>
	</g>
</g>
<g>
	<g>
		<path d="M215.031,120.629l-12.234,10.312c6.003,7.133,13.205,13.164,21.281,17.821l8-13.859
			C225.607,131.175,219.838,126.344,215.031,120.629z"/>
	</g>
</g>
<g>
	<g>
		<path d="M202.594,28.129c-5.992,7.156-10.68,15.308-13.852,24.086l15.047,5.438c2.536-7.02,6.289-13.539,11.086-19.258
			L202.594,28.129z"/>
	</g>
</g>
<g>
	<g>
		<path d="M342.383,79.152L328,79.418c0.01,7.462-1.286,14.868-3.828,21.883l15.031,5.469c3.21-8.849,4.831-18.196,4.789-27.609
			L342.383,79.152z"/>
	</g>
</g>
<g>
	<g>
		<path d="M275.172,142.449c-7.351,1.279-14.866,1.284-22.219,0.016l-2.75,15.766c9.182,1.594,18.571,1.583,27.75-0.031
			L275.172,142.449z"/>
	</g>
</g>
<g>
	<g>
		<path d="M325.11,27.778l-12.219,10.328c4.828,5.693,8.617,12.19,11.195,19.195l15.016-5.547
			C335.873,43.006,331.138,34.892,325.11,27.778z"/>
	</g>
</g>
<g>
	<g>
		<path d="M478.383,399.152L464,399.418c0.01,7.462-1.286,14.868-3.828,21.883l15.031,5.469c3.21-8.849,4.831-18.196,4.789-27.609
			L478.383,399.152z"/>
	</g>
</g>
<g>
	<g>
		<path d="M351.031,440.629l-12.234,10.312c6.003,7.133,13.205,13.164,21.281,17.821l8-13.859
			C361.607,451.175,355.838,446.344,351.031,440.629z"/>
	</g>
</g>
<g>
	<g>
		<path d="M411.172,462.449c-7.35,1.287-14.867,1.292-22.219,0.016l-2.75,15.766c9.182,1.594,18.571,1.583,27.75-0.031
			L411.172,462.449z"/>
	</g>
</g>
<g>
	<g>
		<path d="M461.11,347.778l-12.219,10.328c4.828,5.693,8.617,12.19,11.195,19.195l15.015-5.547
			C471.873,363.006,467.138,354.892,461.11,347.778z"/>
	</g>
</g>
<g>
	<g>
		<path d="M449.047,440.543c-4.798,5.719-10.556,10.557-17.016,14.297l8.016,13.844c8.071-4.668,15.263-10.712,21.25-17.859
			L449.047,440.543z"/>
	</g>
</g>
<g>
	<g>
		<path d="M413.633,320.574l-2.703,15.766c7.349,1.26,14.419,3.807,20.883,7.523l7.969-13.875
			C431.688,325.334,422.836,322.146,413.633,320.574z"/>
	</g>
</g>
<g>
	<g>
		<path d="M336,399.559l-16,0.031c0.002,9.327,1.647,18.58,4.859,27.336l15.016-5.5C337.316,414.419,336.005,407.018,336,399.559z"
			/>
	</g>
</g>
<g>
	<g>
		<path d="M338.594,348.129c-5.992,7.156-10.68,15.308-13.852,24.086l15.047,5.438c2.536-7.02,6.289-13.539,11.086-19.258
			L338.594,348.129z"/>
	</g>
</g>
<g>
	<g>
		<path d="M385.891,320.66c-9.188,1.632-18.016,4.871-26.078,9.57l8.047,13.828c6.444-3.755,13.5-6.344,20.844-7.648L385.891,320.66
			z"/>
	</g>
</g>
<g>
	<g>
		<path d="M385.891,128.66c-9.188,1.632-18.016,4.871-26.078,9.57l8.047,13.828c6.444-3.755,13.5-6.344,20.844-7.648L385.891,128.66
			z"/>
	</g>
</g>
<g>
	<g>
		<path d="M351.031,248.629l-12.234,10.312c6.003,7.133,13.205,13.164,21.281,17.821l8-13.859
			C361.607,259.175,355.838,254.344,351.031,248.629z"/>
	</g>
</g>
<g>
	<g>
		<path d="M336,207.559l-16,0.031c0.002,9.327,1.647,18.58,4.859,27.336l15.016-5.5C337.316,222.419,336.005,215.018,336,207.559z"
			/>
	</g>
</g>
<g>
	<g>
		<path d="M449.047,248.543c-4.798,5.719-10.556,10.557-17.016,14.297l8.016,13.844c8.071-4.668,15.263-10.712,21.25-17.859
			L449.047,248.543z"/>
	</g>
</g>
<g>
	<g>
		<path d="M461.11,155.778l-12.219,10.328c4.828,5.693,8.617,12.19,11.195,19.195l15.016-5.547
			C471.873,171.006,467.138,162.892,461.11,155.778z"/>
	</g>
</g>
<g>
	<g>
		<path d="M338.594,156.129c-5.992,7.156-10.68,15.308-13.852,24.086l15.047,5.438c2.536-7.02,6.289-13.539,11.086-19.258
			L338.594,156.129z"/>
	</g>
</g>
<g>
	<g>
		<path d="M478.383,207.153L464,207.418c0.01,7.462-1.286,14.868-3.828,21.883l15.031,5.469c3.21-8.849,4.831-18.196,4.789-27.609
			L478.383,207.153z"/>
	</g>
</g>
<g>
	<g>
		<path d="M413.633,128.574l-2.703,15.766c7.349,1.26,14.419,3.807,20.883,7.523l7.969-13.875
			C431.688,133.334,422.836,130.146,413.633,128.574z"/>
	</g>
</g>
<g>
	<g>
		<path d="M411.172,270.449c-7.351,1.279-14.866,1.284-22.219,0.016l-2.75,15.766c9.182,1.594,18.571,1.583,27.75-0.031
			L411.172,270.449z"/>
	</g>
</g>
<g>
	<g>
		<path d="M400,359.418c-22.091,0-40,17.909-40,40c0,22.091,17.909,40,40,40c22.091,0,40-17.909,40-40
			C439.974,377.337,422.081,359.444,400,359.418z M400,423.418c-13.255,0-24-10.745-24-24s10.745-24,24-24s24,10.745,24,24
			C423.986,412.667,413.249,423.404,400,423.418z"/>
	</g>
</g>
<g>
	<g>
		<path d="M432.009,167.418c-0.003,0-0.006,0-0.009,0h-64c-4.416-0.003-7.997,3.575-8,7.991c0,0.003,0,0.006,0,0.009v64
			c-0.003,4.416,3.575,7.997,7.991,8c0.003,0,0.006,0,0.009,0h64c4.416,0.003,7.997-3.575,8-7.991c0-0.003,0-0.006,0-0.009v-64
			C440.003,171.002,436.425,167.421,432.009,167.418z M424,231.418h-48v-48h48V231.418z"/>
	</g>
</g>
<g>
	<g>
		<path d="M166.86,75.301c-0.675-1.125-1.617-2.067-2.742-2.742l-40-24c-3.787-2.274-8.701-1.048-10.976,2.739
			c-0.747,1.244-1.142,2.669-1.142,4.12v16H64c-4.416-0.003-7.997,3.575-8,7.991c0,0.003,0,0.006,0,0.009v136h16v-128h40v16
			c0,4.418,3.582,8,8,8c1.45,0,2.874-0.394,4.117-1.141l40-24C167.906,84.004,169.133,79.09,166.86,75.301z M128,89.285V69.551
			l16.453,9.867L128,89.285z"/>
	</g>
</g>
<g>
	<g>
		<path d="M302.86,403.301c-0.675-1.125-1.617-2.067-2.742-2.742l-40-24c-3.787-2.274-8.701-1.048-10.976,2.739
			c-0.747,1.244-1.142,2.669-1.142,4.12v16h-24v-112c0.003-4.416-3.575-7.997-7.991-8c-0.003,0-0.006,0-0.009,0h-40v16h32v112
			c-0.003,4.416,3.575,7.997,7.991,8c0.003,0,0.006,0,0.009,0h32v16c0,4.418,3.582,8,8,8c1.45,0,2.874-0.394,4.117-1.141l40-24
			C303.906,412.004,305.133,407.09,302.86,403.301z M264,417.285v-19.734l16.453,9.867L264,417.285z"/>
	</g>
</g>
<g>
</g>
<g>
</g>
<g>
</g>
<g>
</g>
<g>
</g>
<g>
</g>
<g>
</g>
<g>
</g>
<g>
</g>
<g>
</g>
<g>
</g>
<g>
</g>
<g>
</g>
<g>
</g>
<g>
</g>
</svg>
