<svg xmlns="http://www.w3.org/2000/svg" width="460" height="50" viewBox="0 0 460 50">
  <metadata><?xpacket begin="﻿" id="W5M0MpCehiHzreSzNTczkc9d"?>
<x:xmpmeta xmlns:x="adobe:ns:meta/" x:xmptk="Adobe XMP Core 5.6-c140 79.160451, 2017/05/06-01:08:21        ">
   <rdf:RDF xmlns:rdf="http://www.w3.org/1999/02/22-rdf-syntax-ns#">
      <rdf:Description rdf:about=""/>
   </rdf:RDF>
</x:xmpmeta>
                                                                                                    
                                                                                                    
                                                                                                    
                                                                                                    
                                                                                                    
                                                                                                    
                                                                                                    
                                                                                                    
                                                                                                    
                                                                                                    
                                                                                                    
                                                                                                    
                                                                                                    
                                                                                                    
                                                                                                    
                                                                                                    
                                                                                                    
                                                                                                    
                                                                                                    
                                                                                                    
                           
<?xpacket end="w"?></metadata>
<defs>
    <style>
      .cls-1 {
        fill: #f8f8f6;
        fill-rule: evenodd;
      }
    </style>
  </defs>
  <path id="synus.arc" class="cls-1" d="M0.053,0.026V19.2h32.1V29.8H4.338V24.956H0.053v9.129H45.01V14.914h-32.1V4.31H40.725V9.156H45.01V0.026H0.053Zm108.669,0H83.082V4.31h6.392V29.8h-28.8V4.31h6.954V0.026H49.435V4.31h6.954V34.085H89.474V45.672h-28.8V40.827H56.389v9.129h45.94V4.31h6.393V0.026Zm3.862,4.284h6.393V29.8h-6.393v4.284h25.64V29.8h-6.392V4.31h27.817V29.8h-6.955v4.284h18.194V29.8h-6.954V0.026h-51.35V4.31ZM223.923,29.8V0.026H212.684V4.31h6.954V29.8H191.821V0.026H172.574V4.31h6.392V34.085h51.912V29.8h-6.955ZM235.3,0.588V19.2h32.1V29.8H239.588V24.956H235.3v9.129H280.26V14.914H247.6V4.31h28.379V9.156h4.285V0.588H235.3Zm66.451,21.067H287.143v12.43h14.611V21.656ZM353.033,0.026H309.2V9.156h3.723V4.31H340.74v10.6H309.2V34.085h50.788V29.8h-6.955V0.026ZM312.923,29.8V19.2H340.74V29.8H312.923ZM363.077,0.026V4.31h6.955V29.8h-6.955v4.284h25.64V29.8h-6.954V4.31H404.03V9.085h4.285V0.026H363.077ZM453.764,29.8h-28.38V4.31h28.38V9.156h4.284V0.026H413.654V34.085h44.394V24.956h-4.284V29.8Z"/>
</svg>
