<?xml version="1.0" encoding="iso-8859-1"?>
<!-- Generator: Adobe Illustrator 19.0.0, SVG Export Plug-In . SVG Version: 6.00 Build 0)  -->
<svg version="1.1" id="Capa_1" xmlns="http://www.w3.org/2000/svg" xmlns:xlink="http://www.w3.org/1999/xlink" x="0px" y="0px"
	 viewBox="0 0 480.058 480.058" style="enable-background:new 0 0 480.058 480.058;" xml:space="preserve">
<g>
	<g>
		<path d="M368.033,88.029c-0.001,0-0.003,0-0.004,0c-13.249-0.014-23.986-10.751-24-24c0-4.418-3.582-8-8-8s-8,3.582-8,8
			c-0.014,13.249-10.751,23.986-24,24c-4.418,0-8,3.582-8,8s3.582,8,8,8c13.249,0.014,23.986,10.751,24,24c0,4.418,3.582,8,8,8
			s8-3.582,8-8c0.014-13.249,10.751-23.986,24-24c4.417,0.001,7.999-3.579,8-7.996c0-0.001,0-0.003,0-0.004
			C376.03,91.612,372.45,88.03,368.033,88.029z M336.029,104.053c-2.283-3.039-4.984-5.74-8.023-8.023
			c3.039-2.283,5.74-4.984,8.023-8.023c2.283,3.039,4.984,5.74,8.023,8.023C341.013,98.312,338.312,101.014,336.029,104.053z"/>
	</g>
</g>
<g>
	<g>
		<path d="M176.029,88.029c-13.249-0.014-23.986-10.751-24-24c0-4.418-3.582-8-8-8s-8,3.582-8,8c-0.014,13.249-10.751,23.986-24,24
			c-4.418,0-8,3.582-8,8s3.582,8,8,8c13.249,0.014,23.986,10.751,24,24c0,4.418,3.582,8,8,8s8-3.582,8-8
			c0.014-13.249,10.751-23.986,24-24c4.418,0,8-3.582,8-8S180.447,88.029,176.029,88.029z M144.029,104.053
			c-2.283-3.039-4.984-5.74-8.023-8.023c3.039-2.283,5.74-4.984,8.023-8.023c2.283,3.039,4.984,5.74,8.023,8.023
			C149.013,98.312,146.312,101.014,144.029,104.053z"/>
	</g>
</g>
<g>
	<g>
		<path d="M272.029,32.029c-13.249-0.014-23.986-10.751-24-24c0.001-4.417-3.579-7.999-7.996-8c-0.001,0-0.003,0-0.004,0
			c-4.417-0.001-7.999,3.579-8,7.996c0,0.001,0,0.003,0,0.004c-0.014,13.249-10.751,23.986-24,24c-4.418,0-8,3.582-8,8s3.582,8,8,8
			c13.249,0.014,23.986,10.751,24,24c0,4.418,3.582,8,8,8s8-3.582,8-8c0.014-13.249,10.751-23.986,24-24c4.418,0,8-3.582,8-8
			S276.447,32.029,272.029,32.029z M240.029,48.053c-2.283-3.039-4.984-5.74-8.023-8.023c3.039-2.283,5.74-4.984,8.023-8.023
			c2.283,3.039,4.984,5.74,8.023,8.023C245.013,42.312,242.312,45.014,240.029,48.053z"/>
	</g>
</g>
<g>
	<g>
		<path d="M240.029,120.029c-70.692,0-128,57.308-128,128s57.308,128,128,128c70.659-0.081,127.919-57.341,128-128
			C368.029,177.337,310.721,120.029,240.029,120.029z M240.029,360.029c-61.856,0-112-50.144-112-112s50.144-112,112-112
			s112,50.144,112,112C351.959,309.856,301.856,359.96,240.029,360.029z"/>
	</g>
</g>
<g>
	<g>
		<path d="M160.029,240.029h16c0.04-35.329,28.671-63.96,64-64v-16C195.867,160.08,160.079,195.867,160.029,240.029z"/>
	</g>
</g>
<g>
	<g>
		<path d="M480.029,372.006l-0.133-141.34c-0.023-22.027-13.719-38.637-31.867-38.637h-1.531
			c-17.663,0.944-31.827,14.951-32.969,32.602l-19.672,101.234c-6.717-1.001-13.562,0.626-19.109,4.543l-60.375,42.461
			c-6.481,4.571-10.339,12.006-10.344,19.937v79.223c-0.001,4.417,3.579,7.999,7.996,8c0.001,0,0.003,0,0.004,0h80
			c4.417,0.001,7.999-3.579,8-7.996c0-0.001,0-0.003,0-0.004v-10.121l52.672-33.535C470.48,415.184,480.685,394.133,480.029,372.006
			z M443.943,414.982l-56.211,35.785c-2.306,1.47-3.702,4.015-3.703,6.75v6.512h-64v-71.223c0.001-2.727,1.327-5.283,3.555-6.856
			l60.367-42.457c4.715-3.315,11.224-2.179,14.539,2.536c1.235,1.757,1.898,3.852,1.898,5.999c0.039,2.544-0.872,5.01-2.555,6.918
			l-50.961,42.965l10.312,12.234l51.461-43.422c10.305-10.306,10.326-27.008,0.047-37.34l20.625-106.242
			c0.233-9.735,7.525-17.847,17.18-19.113h1.531c9.031,0,15.852,9.738,15.867,22.652l0.133,141.332
			C464.709,388.749,457.219,404.771,443.943,414.982z"/>
	</g>
</g>
<g>
	<g>
		<path d="M165.677,372.865l-60.367-42.457c-5.549-3.915-12.392-5.542-19.109-4.543L66.615,225.174
			c-0.981-17.849-15.209-32.115-33.055-33.145h-1.531c-18.148,0-31.844,16.609-31.867,38.637L0.029,372.014
			c-0.644,22.191,9.627,43.289,27.492,56.469l52.508,33.426v10.121c-0.001,4.417,3.579,7.999,7.996,8c0.001,0,0.003,0,0.004,0h80
			c4.417,0.001,7.999-3.579,8-7.996c0-0.001,0-0.003,0-0.004v-79.223C176.023,384.872,172.163,377.436,165.677,372.865z
			 M160.029,464.029h-64v-6.512c-0.001-2.735-1.397-5.28-3.703-6.75l-56.047-35.676c-13.364-10.201-20.92-26.272-20.25-43.07
			l0.133-141.34c0.016-12.914,6.836-22.652,15.867-22.652h1.531c9.83,1.37,17.175,9.731,17.266,19.656l20.539,105.699
			c-10.279,10.332-10.258,27.034,0.047,37.34c0.294,0.292,0.61,0.561,0.945,0.805l58.961,42.965l9.422-12.93l-58.391-42.547
			c-3.858-4.283-3.514-10.882,0.768-14.74c3.617-3.259,9.007-3.584,12.99-0.783l60.359,42.453c2.232,1.571,3.561,4.13,3.563,6.859
			V464.029z"/>
	</g>
</g>
<g>
</g>
<g>
</g>
<g>
</g>
<g>
</g>
<g>
</g>
<g>
</g>
<g>
</g>
<g>
</g>
<g>
</g>
<g>
</g>
<g>
</g>
<g>
</g>
<g>
</g>
<g>
</g>
<g>
</g>
</svg>
